<svg xmlns="http://www.w3.org/2000/svg" xmlns:xlink="http://www.w3.org/1999/xlink" style="margin: auto; display: block;" width="250px" height="130px" viewBox="0 0 100 100" preserveAspectRatio="xMidYMid">

<defs>
  <clipPath id="ldio-kczpkotc9zb-cp" x="0" y="0" width="70" height="70">
    <path d="M81.3,58.7H18.7c-4.8,0-8.7-3.9-8.7-8.7v0c0-4.8,3.9-8.7,8.7-8.7h62.7c4.8,0,8.7,3.9,8.7,8.7v0C90,54.8,86.1,58.7,81.3,58.7z"></path>
  </clipPath>
</defs>
<path fill="none" stroke="#1976d2" stroke-width="2.7928" d="M82 63H18c-7.2,0-13-5.8-13-13v0c0-7.2,5.8-13,13-13h64c7.2,0,13,5.8,13,13v0C95,57.2,89.2,63,82,63z"></path>
<g clip-path="url(#ldio-kczpkotc9zb-cp)">
  <g>
    <rect x="-100" y="0" width="25" height="70" fill="#7fe5ff"></rect>
    <rect x="-75" y="0" width="25" height="70" fill="#00ccff"></rect>
    <rect x="-50" y="0" width="25" height="70" fill="#409cff"></rect>
    <rect x="-25" y="0" width="25" height="70" fill="#007aff"></rect>
    <rect x="0" y="0" width="25" height="70" fill="#7fe5ff"></rect>
    <rect x="25" y="0" width="25" height="70" fill="#00ccff"></rect>
    <rect x="50" y="0" width="25" height="70" fill="#409cff"></rect>
    <rect x="75" y="0" width="25" height="70" fill="#007aff"></rect>
    <animateTransform attributeName="transform" type="translate" dur="1s" repeatCount="indefinite" keyTimes="0;1" values="0;100"></animateTransform>
  </g>
</g>
</svg>